<?xml version="1.0" encoding="utf-8"?>
<!-- Generator: Adobe Illustrator 27.6.1, SVG Export Plug-In . SVG Version: 6.00 Build 0)  -->
<svg version="1.1" id="Capa_1" xmlns="http://www.w3.org/2000/svg" xmlns:xlink="http://www.w3.org/1999/xlink" x="0px" y="0px"
	 viewBox="0 0 717 363" style="enable-background:new 0 0 717 363;" xml:space="preserve">
<style type="text/css">
	.st0{fill:#8C734B;}
</style>
<g>
	<path class="st0" d="M59.6,279.5L59.6,279.5c13-3.8,19.3-12.2,19.3-25.7c0-16-11.6-24.9-32.7-24.9c-6.4,0-12.9,0.1-19.2,0.2h-0.2
		c-2.3,0.1-4.7,0.1-6.9,0.1c-1.3,0-2.3,1-2.3,2.3v89.7c0,1.3,1,2.3,2.3,2.3h14.2c1.3,0,2.3-1,2.3-2.3v-37.6h5.3l19.5,38.7
		c0.4,0.8,1.2,1.3,2.1,1.3h16.4c0.8,0,1.6-0.4,2-1.1c0.4-0.7,0.5-1.6,0.1-2.3L59.6,279.5L59.6,279.5z M36.4,242.3h6.7
		c11.1,0,16.1,4.2,16.1,13.4c0,9.7-5.1,14.4-15.5,14.4h-7.3V242.3L36.4,242.3z"/>
	<path class="st0" d="M109.3,253.6H95.9c-1.3,0-2.3,1-2.3,2.3v65.4c0,1.3,1,2.3,2.3,2.3h13.4c1.3,0,2.3-1,2.3-2.3V256
		C111.6,254.7,110.5,253.6,109.3,253.6z"/>
	<path class="st0" d="M102.7,225.9c-8.3,0-10.8,2.2-10.8,9.5c0,7.4,2.3,9.4,10.8,9.4c9,0,10.6-3,10.6-9.4
		C113.2,227.8,111.1,225.9,102.7,225.9z"/>
	<path class="st0" d="M159.5,252.1c-21.8,0-33.8,13.5-33.8,38c0,23.9,9.8,35.1,30.9,35.1c21.8,0,33.8-13.6,33.8-38.2
		C190.4,263.2,180.5,252.1,159.5,252.1L159.5,252.1z M158.2,311.9c-8.5,0-14.1-4.2-14.1-24.9c0-21.6,10.3-21.6,13.7-21.6
		c8.5,0,14.1,4.2,14.1,24.9C171.9,311.9,161.6,311.9,158.2,311.9L158.2,311.9z"/>
	<path class="st0" d="M240,252.1c-8.1,0-15.1,4.7-19.4,8.7l-1.1-5.3c-0.2-1.1-1.1-1.9-2.2-1.9h-10.5c-1.2,0-2.3,1-2.3,2.3v89.5
		c0,1.2,1,2.3,2.3,2.3h13.5c1.2,0,2.3-1,2.3-2.3v-20.8h0c2.3,0.3,5.5,0.4,7.4,0.4c22.2,0,34.9-14.4,34.9-39.4
		C264.8,269.5,258.3,252.1,240,252.1L240,252.1z M230.9,312.3c-3.3,0-6.1-0.5-8.4-1.4v-39.1h0c4.2-3.7,8.8-5.9,12.4-5.9
		c3.4,0,11.5,2.2,11.5,22.4C246.4,309.2,236.6,312.3,230.9,312.3L230.9,312.3z"/>
	<path class="st0" d="M303.5,312.4L303.5,312.4c-0.7,0-1.1,0-1.6,0c-3.7,0-4.7-1.1-4.7-8.9v-76.6c0-1.3-1-2.3-2.3-2.3h-13.4
		c-1.3,0-2.3,1-2.3,2.3v83.7c0,11.7,5.3,14.1,13.8,14.1c4.3,0,8.1-0.4,11.6-1.3c1-0.3,1.8-1.3,1.7-2.4l-0.4-6.5
		C305.7,313.3,304.7,312.4,303.5,312.4L303.5,312.4z"/>
	<path class="st0" d="M345.9,252.1c-8.7,0-17.6,1.9-26.5,5.5c-1,0.4-1.6,1.5-1.4,2.6l1.4,6.5c0.1,0.6,0.5,1.1,1.1,1.5
		c0.4,0.2,0.8,0.3,1.2,0.3c0.2,0,0.5,0,0.7-0.1c4.7-1.5,11.9-3.4,18.8-3.4c11.7,0,13,6,13,10.6v5.3h-4.3c-31.4,0-36,15.1-36,24.2
		c0,9.1,3.7,20,21.6,20c8,0,14.3-2.6,21.4-8.7l0.9,5.2c0.2,1.1,1.1,1.9,2.2,1.9h9.6c1.3,0,2.3-1,2.3-2.3v-47.4
		C372,259.9,362.7,252.1,345.9,252.1L345.9,252.1z M348.9,291.9h5.3v14.4c-4.6,4-9.2,6.1-13.4,6.1c-5.9,0-9.4-3.5-9.4-9.5
		C331.5,298.2,333.3,291.9,348.9,291.9L348.9,291.9z"/>
	<path class="st0" d="M424,311.1c-0.4-0.3-0.9-0.4-1.3-0.4c-0.2,0-0.4,0-0.5,0.1c-2.6,0.6-5,0.9-7,0.9c-4.8,0-6.4-2.4-6.4-9.3v-36
		h13.2c1.3,0,2.3-1,2.3-2.3v-8c0-1.3-1-2.3-2.3-2.3h-13.2v-18.1c0-1.3-1-2.3-2.3-2.3h-8.8c-1.1,0-2,0.8-2.3,1.9
		c-1.4,8-2.6,13.3-4,18.5h-7.2c-1.2,0-2.3,1-2.3,2.3v8c0,1.3,1.1,2.3,2.3,2.3h6.6v40.5c0,13.3,4.8,18.3,17.8,18.3
		c5.2,0,10.3-1.2,15.9-3.8c0.9-0.5,1.4-1.4,1.3-2.4l-0.8-6.2C424.9,312,424.5,311.5,424,311.1L424,311.1z"/>
	<path class="st0" d="M466,252.1c-20.1,0-31.7,14-31.7,38.4c0,23.3,9.9,34.7,30.4,34.7c9,0,18.4-2.3,27.2-6.6c1-0.5,1.5-1.5,1.2-2.6
		l-1.5-6.2c-0.1-0.6-0.5-1.1-1.1-1.5c-0.3-0.2-0.7-0.3-1.1-0.3c-0.2,0-0.4,0-0.7,0.1c-7,2.1-14.2,3.3-20.4,3.3
		c-10.4,0-15.6-6.1-15.6-18.3v-1h39.2c1.2,0,2.2-1,2.3-2.2c0.5-14.1-2.1-24.4-7.9-30.5C481.4,254.6,474.8,252.1,466,252.1L466,252.1
		z M465.1,264.1c7.6,0,11.5,5.6,11.5,16.6v0.3h-23.9C453.3,270.6,458.1,264.1,465.1,264.1L465.1,264.1z"/>
	<path class="st0" d="M546.4,252.1c-7.6,0-14.7,3-21.2,8.9l-1-5.5c-0.2-1.1-1.1-1.9-2.3-1.9h-10.6c-1.3,0-2.3,1-2.3,2.3v65.4
		c0,1.3,1,2.3,2.3,2.3h13.4c1.2,0,2.3-1,2.3-2.3v-49.1c4.9-3.7,9.4-5.7,13-5.7c7.1,0,9.6,5.3,9.6,20.4c0,3.5-0.1,8-0.1,13.3l0,0.4
		c-0.1,6.4-0.2,13.5-0.2,20.8c0,0.6,0.2,1.2,0.7,1.6c0.4,0.4,1,0.7,1.6,0.7h13.3c1.2,0,2.3-1,2.3-2.3c0-8,0.1-16,0.3-23
		c0.1-5.8,0.2-10.8,0.2-14.5C567.7,255.7,556.4,252.1,546.4,252.1L546.4,252.1z"/>
	<path class="st0" d="M611.7,281.6c-9.6-3.5-12.2-5.6-12.2-9.9c0-3.5,2.7-7.3,10.5-7.3c3.2,0,6.6,0.5,11.6,1.6
		c0.2,0.1,0.3,0.1,0.5,0.1c0.4,0,0.9-0.1,1.2-0.4c0.5-0.3,0.9-0.8,1-1.4l1.1-5.2c0.3-1-0.2-2.1-1.2-2.5c-6.2-3-11.8-4.4-17.9-4.4
		c-15.5,0-25.6,8.4-25.6,21.2c0,10.1,5.2,15.9,18.6,20.7c9.8,3.5,12.5,5.8,12.5,10.6c0,2.3-1.2,7.7-12.7,7.7
		c-4.2,0-8.6-0.5-14.7-1.8c-0.2-0.1-0.3-0.1-0.5-0.1c-0.4,0-0.9,0.2-1.3,0.4c-0.5,0.3-0.9,0.9-1,1.5l-0.9,5.3
		c-0.2,1,0.3,1.9,1.2,2.4c6.5,3.3,13.2,4.9,20.3,4.9c17.3,0,28.5-8.7,28.5-22.2C630.6,292.4,625,286.1,611.7,281.6L611.7,281.6z"/>
	<path class="st0" d="M691.3,259.5c-4.7-5-11.3-7.4-20.2-7.4c-20.1,0-31.7,14-31.7,38.4c0,23.3,10,34.7,30.5,34.7
		c9,0,18.3-2.3,27.1-6.6c1-0.5,1.5-1.5,1.2-2.6l-1.5-6.2c-0.1-0.6-0.5-1.1-1.1-1.5c-0.3-0.2-0.7-0.3-1.1-0.3c-0.2,0-0.5,0-0.6,0.1
		c-7,2.1-14.3,3.3-20.5,3.3c-10.4,0-15.7-6.1-15.7-18.3v-1h39.2c1.2,0,2.3-1,2.3-2.2C699.7,275.9,697.1,265.7,691.3,259.5
		L691.3,259.5z M670.3,264.1c7.6,0,11.5,5.6,11.5,16.6v0.3h-23.9C658.5,270.6,663.2,264.1,670.3,264.1L670.3,264.1z"/>
	<g>
		<path class="st0" d="M441.5,34.5c0.5-0.3,1-0.9,1.1-1.5c0.1-0.6,0-1.3-0.4-1.8l-5.9-8.4c-0.4-0.6-1.1-1-1.9-1
			c-0.4,0-0.8,0.1-1.2,0.3c-6.4,3.8-15.4,6-24.5,6c-9.2,0-18.2-2.2-24.6-6c-0.4-0.2-0.8-0.3-1.2-0.3c-0.8,0-1.5,0.3-1.9,1l-6,8.4
			c-0.4,0.5-0.5,1.2-0.4,1.8c0.1,0.6,0.5,1.1,1.1,1.5c8.9,5.5,20.5,8.6,32.9,8.6C420.9,43,432.6,40,441.5,34.5L441.5,34.5z"/>
		<path class="st0" d="M593.9,46.6c21-1.8,40.8-3.6,60-3.6c18.5,0,31.4,8.1,33.2,16c0.2,1.1,1.2,1.8,2.3,1.8h10.4
			c0.6,0,1.3-0.3,1.7-0.8c0.5-0.5,0.6-1.1,0.6-1.8C700.3,41,679.6,28.1,654,28.1c-19.8,0-40,1.8-61.3,3.6
			c-21.7,1.9-44.1,3.9-66.5,3.9c-23.5,0-44.1-2.2-63-6.7c-0.2-0.1-0.4-0.1-0.6-0.1c-1,0-2,0.7-2.2,1.8l-2.5,10
			c-0.2,0.6,0,1.2,0.3,1.8c0.3,0.5,0.8,0.9,1.4,1c20.2,4.8,41.9,7.1,66.5,7.1C549,50.5,571.8,48.5,593.9,46.6L593.9,46.6z"/>
		<path class="st0" d="M424.5,132.5L424.5,132.5c-0.7,0-1.3,0.2-1.7,0.6l-7.5,7c-0.9,0.8-1,2.3-0.2,3.2
			c11.5,13.5,18.4,34.8,18.8,58.3c0,1.3,1.1,2.3,2.3,2.3h10.4c0.6,0,1.2-0.2,1.6-0.7c0.4-0.5,0.7-1.1,0.7-1.7
			c-0.5-27.2-8.7-52-22.6-68.2C425.8,132.8,425.1,132.5,424.5,132.5L424.5,132.5z"/>
		<path class="st0" d="M702.3,82.1c0-1.3-1-2.3-2.3-2.3h-10.2c-0.7,0-1.3,0.2-1.7,0.7c-0.4,0.5-0.7,1.1-0.7,1.7v4.9
			c-0.1,18.9-5.1,36.9-13.7,49.3l-0.6,0.9c-11.8,16.3-18.9,39.7-19.3,64.4c-0.1,0.6,0.2,1.2,0.6,1.7c0.4,0.4,1,0.7,1.7,0.7h10.3
			c1.2,0,2.2-1,2.3-2.3c0.4-20.8,6-40.5,15.4-54.2l1.1-1.5c10.9-15.1,17.2-37,17.2-59.9L702.3,82.1L702.3,82.1z"/>
		<path class="st0" d="M629.8,169.1c-0.4-0.2-0.8-0.3-1.2-0.3c-0.2,0-0.4,0-0.6,0.1l-9.9,2.8c-1.2,0.3-1.9,1.6-1.6,2.8
			c2.2,8.6,3.4,17.8,3.6,27.2c0,1.3,1,2.3,2.3,2.3h10.3c0.6,0,1.2-0.2,1.7-0.7c0.4-0.5,0.7-1.1,0.6-1.7c-0.2-10.7-1.5-21.2-4.1-31
			C630.7,170,630.3,169.5,629.8,169.1L629.8,169.1z"/>
		<path class="st0" d="M440.6,83.3c0.1-0.6,0-1.3-0.3-1.8c-0.4-0.5-1-0.9-1.5-1l-10.2-1.6c-0.1,0-0.3,0-0.4,0
			c-1.1,0-2.1,0.8-2.3,1.9c-2.7,13.3-10,23-17.4,23.1c-5.3,0-8.6-2-9.3-3.1v0c0-15.3-2.3-30.6-6.6-44.2c-0.2-0.6-0.6-1.1-1.2-1.4
			c-0.3-0.2-0.7-0.2-1-0.2c-0.3,0-0.5,0-0.8,0.1l-9.7,3.3c-1.2,0.4-1.9,1.7-1.5,2.9c3.9,12.2,5.9,25.9,5.9,39.8
			c0,10,10.6,17.9,24.2,17.9h0.1C423.6,118.8,436.5,104.5,440.6,83.3L440.6,83.3z"/>
		<path class="st0" d="M624.8,151.3c0.2-0.6,0.2-1.2,0-1.8l-4-9.5c-0.4-0.9-1.2-1.4-2.2-1.4c-0.3,0-0.5,0.1-0.8,0.2
			c-12.2,4.7-26.3,7.2-40.8,7.2h-69.8c-21.7,0-38.7,25.5-38.7,58v10.3c0,1.3,1,2.3,2.3,2.3h10.3c1.3,0,2.3-1,2.3-2.3V204
			c0-23,11.1-43.1,23.7-43.1H577c16.5,0,32.5-2.9,46.5-8.4C624.1,152.3,624.6,151.9,624.8,151.3L624.8,151.3z"/>
	</g>
</g>
</svg>
